<?xml version="1.0" encoding="iso-8859-1"?>
<!-- Generator: Adobe Illustrator 19.0.0, SVG Export Plug-In . SVG Version: 6.00 Build 0)  -->
<svg version="1.1" id="Layer_1" xmlns="http://www.w3.org/2000/svg" xmlns:xlink="http://www.w3.org/1999/xlink" x="0px" y="0px"
	 viewBox="0 0 504.124 504.124" style="enable-background:new 0 0 504.124 504.124;" xml:space="preserve">
<g>
	<circle style="fill:#8C8883;" cx="252.063" cy="252.062" r="252.062"/>
	<circle style="fill:#8C8883;" cx="252.063" cy="252.062" r="252.062"/>
</g>
<path style="fill:#A8A39E;" d="M73.831,430.301c-98.446-98.438-98.438-258.04,0-356.47"/>
<path style="fill:#6D6B69;" d="M73.831,73.831c98.43-98.43,258.032-98.438,356.47,0c98.43,98.43,98.43,258.04,0,356.47"/>
<path style="fill:#848280;" d="M73.831,73.831c98.43-98.43,258.032-98.438,356.47,0"/>
<g>
	<circle style="fill:#99948F;" cx="102.866" cy="280.261" r="25.6"/>
	<circle style="fill:#99948F;" cx="102.204" cy="199.547" r="3.938"/>
	<circle style="fill:#99948F;" cx="227.581" cy="340.67" r="24.285"/>
	<circle style="fill:#99948F;" cx="192.135" cy="259.277" r="8.531"/>
	<circle style="fill:#99948F;" cx="150.127" cy="374.785" r="13.785"/>
	<circle style="fill:#99948F;" cx="324.073" cy="410.908" r="9.192"/>
	<circle style="fill:#99948F;" cx="152.742" cy="200.2" r="9.846"/>
</g>
<g>
	<circle style="fill:#8C8883;" cx="327.366" cy="146.354" r="16.408"/>
	<circle style="fill:#8C8883;" cx="171.789" cy="95.831" r="7.877"/>
	<circle style="fill:#8C8883;" cx="248.597" cy="66.293" r="17.723"/>
	<circle style="fill:#8C8883;" cx="242.689" cy="150.962" r="5.254"/>
	<circle style="fill:#8C8883;" cx="372.65" cy="238.931" r="7.877"/>
	<circle style="fill:#8C8883;" cx="417.951" cy="139.808" r="11.162"/>
	<circle style="fill:#8C8883;" cx="324.735" cy="223.831" r="7.223"/>
	<circle style="fill:#8C8883;" cx="442.881" cy="315.731" r="9.846"/>
</g>
<g>
</g>
<g>
</g>
<g>
</g>
<g>
</g>
<g>
</g>
<g>
</g>
<g>
</g>
<g>
</g>
<g>
</g>
<g>
</g>
<g>
</g>
<g>
</g>
<g>
</g>
<g>
</g>
<g>
</g>
</svg>
